<!-- MediaFinance.Ai – vector logo, transparent background -->
<svg xmlns="http://www.w3.org/2000/svg" viewBox="0 0 1400 420" role="img" aria-label="MediaFinance.Ai">
  <defs>
    <!-- Purple→Blue gradient for the “Ai” -->
    <linearGradient id="aiGrad" x1="0%" y1="0%" x2="100%" y2="0%">
      <stop offset="0%" stop-color="#7B5CFF"/>
      <stop offset="100%" stop-color="#4AA3FF"/>
    </linearGradient>
  </defs>

  <!-- Icon: play triangle with rising bars (white) -->
  <g transform="translate(40,40)">
    <!-- Rounded play triangle -->
    <path fill="#FFFFFF" d="
      M 40 20
      Q 40 0 60 10
      L 300 140
      Q 320 150 300 160
      L 60 290
      Q 40 300 40 280
      Z" />
    <!-- Bars (cut-out look by drawing dark background through the white triangle is hard in a pure lockup;
         so we draw bars as darker overlay with slight inner-shadow feel).
         If you want true cut-outs, we can deliver a 'knocked-out' variant that uses masking. -->
    <g fill="#0D0D0D" opacity="0.98" transform="translate(98,92)">
      <rect x="0"   y="62"  width="34" height="96" rx="6" />
      <rect x="72"  y="46"  width="34" height="112" rx="6" />
      <rect x="144" y="26"  width="34" height="132" rx="6" />
    </g>
  </g>

  <!-- Wordmark -->
  <!-- We use path-based letters for consistency across devices (no webfont needed).
       The “Ai” is filled with the gradient. -->
  <g transform="translate(420,295) scale(1,-1)">
    <!-- The following paths approximate a bold, geometric sans similar to Montserrat/Inter Bold.
         If you need *perfect* font fidelity, share the exact font and we’ll outline it precisely. -->

    <!-- “MediaFinance.” in white -->
    <g fill="#FFFFFF" transform="scale(1,-1)">
      <!-- M -->
      <path d="M0 0 V-120 H24 L60 -48 L96 -120 H120 V0 H96 V-72 L60 -4 L24 -72 V0 Z" />
      <!-- e -->
      <path transform="translate(140,0)" d="M0 -48 C0 -90 30 -120 72 -120 C102 -120 126 -106 136 -84 H112 C106 -96 91 -104 72 -104 C45 -104 28 -85 28 -56 L140 -56 C140 -12 109 8 72 8 C31 8 0 -18 0 -48 Z M28 -40 C33 -21 49 -8 72 -8 C95 -8 112 -20 112 -40 Z"/>
      <!-- d -->
      <path transform="translate(180,0)" d="M96 0 V-16 C87 -3 70 8 48 8 C21 8 0 -14 0 -52 C0 -90 21 -120 48 -120 C70 -120 87 -109 96 -96 V-180 H120 V0 Z M24 -52 C24 -27 39 -8 60 -8 C82 -8 96 -27 96 -52 C96 -77 82 -96 60 -96 C39 -96 24 -77 24 -52 Z"/>
      <!-- i -->
      <path transform="translate(324,0)" d="M0 0 V-88 H24 V0 Z M0 -112 V-132 H24 V-112 Z"/>
      <!-- a -->
      <path transform="translate(364,0)" d="M96 0 V-12 C88 -2 74 8 52 8 C22 8 0 -12 0 -48 C0 -82 22 -104 52 -104 C74 -104 88 -94 96 -84 V-104 H120 V0 Z M24 -48 C24 -28 38 -12 60 -12 C80 -12 96 -26 96 -48 C96 -70 80 -84 60 -84 C38 -84 24 -68 24 -48 Z"/>
      <!-- F -->
      <path transform="translate(508,0)" d="M0 0 V-120 H120 V-100 H24 V-68 H104 V-48 H24 V0 Z"/>
      <!-- i -->
      <path transform="translate(640,0)" d="M0 0 V-88 H24 V0 Z M0 -112 V-132 H24 V-112 Z"/>
      <!-- n -->
      <path transform="translate(680,0)" d="M0 0 V-104 H24 V-88 C33 -100 49 -104 64 -104 C91 -104 112 -83 112 -52 V0 H88 V-48 C88 -69 76 -84 56 -84 C37 -84 24 -70 24 -48 V0 Z"/>
      <!-- a -->
      <path transform="translate(812,0)" d="M96 0 V-12 C88 -2 74 8 52 8 C22 8 0 -12 0 -48 C0 -82 22 -104 52 -104 C74 -104 88 -94 96 -84 V-104 H120 V0 Z M24 -48 C24 -28 38 -12 60 -12 C80 -12 96 -26 96 -48 C96 -70 80 -84 60 -84 C38 -84 24 -68 24 -48 Z"/>
      <!-- n -->
      <path transform="translate(952,0)" d="M0 0 V-104 H24 V-88 C33 -100 49 -104 64 -104 C91 -104 112 -83 112 -52 V0 H88 V-48 C88 -69 76 -84 56 -84 C37 -84 24 -70 24 -48 V0 Z"/>
      <!-- c -->
      <path transform="translate(1084,0)" d="M120 -36 C110 -14 88 8 56 8 C24 8 0 -16 0 -56 C0 -96 24 -120 56 -120 C88 -120 110 -98 120 -76 L96 -76 C89 -90 74 -100 56 -100 C36 -100 24 -84 24 -56 C24 -28 36 -12 56 -12 C74 -12 89 -22 96 -36 Z"/>
      <!-- e -->
      <path transform="translate(1208,0)" d="M0 -48 C0 -90 30 -120 72 -120 C102 -120 126 -106 136 -84 H112 C106 -96 91 -104 72 -104 C45 -104 28 -85 28 -56 L140 -56 C140 -12 109 8 72 8 C31 8 0 -18 0 -48 Z M28 -40 C33 -21 49 -8 72 -8 C95 -8 112 -20 112 -40 Z"/>
      <!-- . -->
      <rect x="1356" y="-12" width="16" height="16" rx="8"/>
    </g>

    <!-- “Ai” with gradient -->
    <g transform="translate(1390,0) scale(1,-1)">
      <!-- A -->
      <path fill="url(#aiGrad)" d="M0 0 L48 -120 H72 L120 0 H96 L86 -24 H34 L24 0 Z M42 -44 H78 L60 -88 Z"/>
      <!-- i -->
      <path fill="url(#aiGrad)" transform="translate(140,0)" d="M0 0 V-88 H24 V0 Z M0 -112 V-132 H24 V-112 Z"/>
    </g>
  </g>
</svg>
